<?xml version="1.0" encoding="utf-8"?>
<!-- Generator: Adobe Illustrator 17.0.0, SVG Export Plug-In . SVG Version: 6.00 Build 0)  -->
<!DOCTYPE svg PUBLIC "-//W3C//DTD SVG 1.1//EN" "http://www.w3.org/Graphics/SVG/1.1/DTD/svg11.dtd">
<svg version="1.1" id="Layer_1" xmlns="http://www.w3.org/2000/svg" xmlns:xlink="http://www.w3.org/1999/xlink" x="0px" y="0px"
	 width="302px" height="302px" viewBox="0 0 302 302" enable-background="new 0 0 302 302" xml:space="preserve">
<g>
	<g>
		<path fill="#FFFFFF" d="M298.4,150.973c0,81.411-65.974,147.427-147.37,147.427c-81.439,0-147.427-66.017-147.427-147.427
			c0-81.389,65.988-147.37,147.427-147.37C232.426,3.603,298.4,69.584,298.4,150.973"/>
		<path fill="#176F39" d="M1,150.975C1,68.148,68.155,1,151.032,1C233.845,1,301,68.148,301,150.975
			C301,233.816,233.845,301,151.032,301C68.155,301,1,233.816,1,150.975 M48.598,48.598c-26.205,26.219-42.41,62.394-42.41,102.377
			c0,39.997,16.205,76.194,42.41,102.413c26.233,26.219,62.415,42.417,102.434,42.417c39.99,0,76.158-16.198,102.37-42.417
			c26.205-26.219,42.396-62.415,42.41-102.413c-0.014-39.983-16.205-76.158-42.41-102.377
			c-26.212-26.205-62.38-42.396-102.37-42.396C111.014,6.202,74.831,22.393,48.598,48.598"/>
	</g>
	<g id="Text">
		<g>
			<path fill="#176F39" d="M41.329,196.955l-11.124,4.619c-0.427,0.192-0.818,0.619-0.541,1.217c0.797,1.829,5.16,3.324,6.633,2.932
				l-0.1-0.192c-0.662-1.402-0.427-3.267,0.932-3.864c1.559-0.697,3.131-0.014,3.836,1.601c0.989,2.391-0.178,4.726-2.235,5.807
				c-3.381,1.822-9.8-0.27-11.693-4.697c-1.445-3.366,1.865-5.587,4.035-6.384l9.174-3.566l-1.046-2.427l1.459-3.502l6.925,16.269
				l-0.947,3.701C44.318,204.926,43.151,200.777,41.329,196.955"/>
			<path fill="#176F39" d="M51.615,216.11l0.712-3.687l-0.74-1.21l1.544-2.121l0.1-1.395l-1.765,0.762
				c-2.021,1.153-3.06,3.608-4.939,4.761l-0.164,0.043c0.79-1.132,1.836-1.993,2.391-3.252c0.384-0.89,0.69-2.213,0.107-3.131
				l-1.872-3.58l-1.089,3.893c2.085,2.74,0.598,4.05-1.694,5.388l-10.818,6.22l-0.569,3.993l16.682-10.092L51.615,216.11z"/>
			<path fill="#176F39" d="M55.032,227.714c-2.085-1.324-4.306-2.007-6.334-3.053c0.512,2.961,0.968,5.224,0.221,7.957
				L55.032,227.714z M59.843,227.508l-0.377,0.32c2.697,2.847,1.893,8.569-0.598,11.024c-1.388,1.295-3.779,1.21-5.295-0.569
				c-1.025-1.167-1.374-3.188-0.263-4.092c1.082-0.947,2.612-0.576,3.558,0.534c0.598,0.676,1.068,1.687,0.989,2.583
				c1.153-1.751,0.954-5.494-0.555-7.274l-0.242-0.263l-11.48,9.579l-0.057-2.142c2.576-3.48,1.409-8.782-0.441-13.052l1.082-4.775
				c4.007,1.751,7.565,4.121,11.451,6.384l0.434-0.356c-2.861-2.861-4.797-6.412-6.925-9.814l0.754-3.9
				c3.864,7.103,9.117,13.216,14.526,19.223l-0.157,4L59.843,227.508z"/>
			<path fill="#176F39" d="M73.132,240.852l-0.377-3.687l-1.067-0.911l0.89-2.441l-0.292-1.338l-1.516,1.231
				c-1.63,1.658-1.922,4.256-3.445,5.836l-0.142,0.128c0.463-1.26,1.196-2.42,1.388-3.736c0.071-0.947,0.071-2.341-0.626-3.196
				l-2.612-3.06l-0.043,4.085c2.377,2.377,1.502,3.936-0.37,5.85l-8.732,8.925l0.598,3.936L70.1,238.247L73.132,240.852z"/>
			<path fill="#176F39" d="M93.871,255.739l-6.811-4.213l0.626,1.096c0.22,1.046-0.043,2.277-0.569,3.146l-0.512,0.683l0.37-0.128
				c0.534-0.192,1.459-0.584,2.057-0.391l0.491,0.214c0.968,0.598,1.416,1.829,1.651,2.889l0.128,1.416L93.871,255.739z
				 M96.276,257.227l-7.565,14.433l-1.374-4.199c0.363-0.562,4.854-5.701,1.445-7.807c-2.114-1.302-6.27,3.131-9.8,0.925
				c-2.042-1.267-2.178-4.562-1.872-6.341l2.946-0.334c-0.306,0.591-0.961,2.74-0.114,3.252c0.726,0.477,4.42-0.904,4.768-1.011
				c1.971-4.185-0.683-3.893-2.847-6.213c-0.932-0.733-1.409-5.644-1.459-6.234c5.665,4.519,12.227,7.971,18.39,11.736l1.402,3.523
				L96.276,257.227z"/>
			<path fill="#176F39" d="M108.091,262.272l-1.53-3.601l-0.79-0.32c1.722-3.487-0.961-6.199-3.921-7.409
				c-1.736-0.548-3.324-1.402-4.904-2.327c-0.74-0.413-1.089-1.217-1.452-1.936l0.256-0.84l1.082-0.719l-0.128-0.89l-1.082-0.228
				l-1.601,1.366c-1.637,2.583,0.826,5.779,3.046,7.16c0.947,1.032,7.615,2.206,6.69,4.263l-0.463,0.527
				c-4.904-1.694-9.188-4.633-13.579-7.338l1.018,3.815l2.206,1.374l-5.046,8.939c-0.989,1.758-1.971,5.836,0.818,7.551
				c5.423,2.548,11.736-0.391,13.501-4.69c0.683-1.63-0.406-4.114-2.185-4.854c-1.637-0.69-3.53-0.107-4.263,1.345
				c-0.697,1.366,0.356,2.84,1.801,3.373l0.199,0.064c-1.003,1.324-5.701,3.124-7.658,2.128c-0.626-0.391-0.861-1.11-0.555-1.658
				l5.736-10.768C99.359,258.906,103.835,260.358,108.091,262.272"/>
			<path fill="#176F39" d="M121.434,266.568l-0.149,0.477c3.836,0.783,6.519,5.907,5.921,9.337
				c-0.363,1.879-2.349,3.167-4.619,2.612c-1.516-0.377-3.003-1.779-2.612-3.21c0.335-1.359,1.808-1.957,3.224-1.594
				c0.89,0.192,1.85,0.747,2.299,1.544c-0.057-2.121-2.405-5.053-4.676-5.622l-0.363-0.093l-3.765,14.469l-1.281-1.722
				c0.071-4.391-4.014-7.864-7.978-10.291l-1.872-4.519c4.249-0.826,8.576-1.11,13.038-1.502l0.135-0.541
				c-3.957-0.705-7.672-2.285-11.352-3.936l-1.644-3.651c7.245,3.63,15.123,5.38,22.952,7.224l2.235,3.345L121.434,266.568z
				 M117.641,269.542c-2.477,0.114-4.697,0.833-6.989,1.238c2.235,1.979,3.872,3.665,4.833,6.327L117.641,269.542z"/>
			<path fill="#176F39" d="M156.728,284.013c-2.235,0.085-4.448,1.196-6.711,0.897c-5.131-0.377-8.263-3.224-7.886-7.558
				c0.171-2.526,0.961-3.146,2.882-4.775l0.911,0.989c-0.911,1.011-1.374,1.886-1.473,3.267c-0.306,5.046,5.231,4.676,9.053,4.37
				c2.832-0.228,3.779,0.221,6.113,1.231l-0.776-12.512l-0.278-0.228c-1.751,0.135-4.768,3.324-5.281,4.975l0.69-0.107
				c1.352-0.185,2.057,1.124,2.1,2.171c0.057,1.737-1.637,2.655-3.338,2.761c-2.69,0.178-3.957-1.737-3.9-3.879
				c0.164-3.281,5.074-7.757,8.476-8.249c1.488-0.107,4.285,1.21,4.434,2.818l1.573,18.483
				C159.369,286.276,160.913,283.721,156.728,284.013"/>
			<path fill="#176F39" d="M190.603,264.087l-3.544-1.58c-8.426,1.836-16.639,4.683-25.343,4.718l2.989,2.498
				c4.27-0.071,8.426-0.875,12.526-2.057l0.057,0.32l0.028,0.064l-10.384,6.526l2.754,3.124c4.391,0,6.946,0.527,10.021,3.167
				c-0.449,0.89-1.459,1.9-2.612,2.185c-1.544,0.363-2.327-0.612-2.683-1.758l-1.672,2.121c0.683,1.495,4.007,3.032,5.95,2.583
				c2.783-0.683,3.864-4.441,7.964-5.437c0.84-0.206,1.758,0.214,2.327,0.641l0.847,2.989l3.971,1.395l-6.405-20.411
				L190.603,264.087z M184.532,265.852l3.637,12.946c-1.246-0.32-1.765-1.388-3.331-0.989c-0.769,0.185-1.559,0.363-2.171,0.897
				l-2.028-8.284c2.989-0.591,3.196,1.822,3.694,2l-1.125-0.1c-1.082,0.249-1.281,1.566-1.082,2.391
				c0.32,1.26,1.68,1.523,3.025,1.196c1.253-0.292,1.601-2.591,1.352-3.501c-0.833-2.655-3.445-5.608-6.676-4.811l-0.178-0.249
				l0.057-0.214L184.532,265.852z M178.177,270.89l0.263,1.082l0.249,1.146l0.975,5.11l-2.334-1.751
				c-1.046-0.569-3.338-1.68-4.576-1.9c1.075-0.733,4.434-3.452,5.366-3.665L178.177,270.89z"/>
			<path fill="#176F39" d="M197.817,272.121c0.697,1.815,2.811,5.38,5.836,3.815c-0.641,0.036-1.374-0.292-1.566-0.776
				c-0.52-1.295,0.178-2.946,1.651-3.544c1.665-0.705,3.601-0.171,4.27,1.181c0.847,1.843-0.683,3.921-2.825,4.811
				c-5.423,2.263-9.565-1.993-10.839-5.829c-1.182-3.224-0.669-6.064,0.512-9.437l-5.032,2.121l-3.516-1.779
				c4.334-1.189,8.384-3.352,12.54-4.968l3.238,1.317C197.611,263.41,195.468,265.865,197.817,272.121"/>
			<path fill="#176F39" d="M208.282,260.761l4.285,8.298c0.149,0.285,0.405,0.512,0.761,0.306c1.964-1.181,3.409-6.619,2.313-8.135
				l-0.27-0.406C212.758,261.373,210.609,261.771,208.282,260.761 M206.617,257.352c3.366,3.473,9.814-2.726,12.22,1.139
				c1.929,2.932,0.399,11.102-3.516,13.472c-1.409,1.011-4.953-0.349-5.537-1.587l-5.75-11.821l-2.519,1.025l-3.573-1.452
				c5.573-1.907,10.498-5.01,15.415-8.113l3.921,0.804L206.617,257.352z"/>
			<path fill="#176F39" d="M234.498,244.163c-0.996,0.84-2.377,1.139-3.238,0.157c-0.747-0.925-0.278-2.42,0.626-3.188l1.516-0.626
				l-0.142-0.69c-0.513-0.534-1.139-0.569-1.722-0.085c-1.125,0.954-2.975,4.875-2.014,6.113c0.975,1.189,4.897,0.584,6.156-0.47
				c0.584-0.498,1.381-1.793,0.811-2.384l-0.932-0.484C235.266,242.69,235.124,243.608,234.498,244.163 M242.896,250.86
				c0.655,0.698,1.836,0.698,2.797,0.89l-0.562,2.235c-2.071-0.456-3.957-0.833-5.352-2.37c-1.26-1.495-1.722-4.768-1.829-4.882
				l-0.242,0.014c-2.441,1.886-6.377,2.434-8.768,1.167c-0.42,1.48-0.47,3.381,0.434,4.505c0.278,0.384,0.612,0.733,1.053,0.349
				c0.754-0.626,0.904-2.085,0.555-2.783c2.42-0.89,4.96-1.139,6.661,0.833c2.22,2.484,0.235,6.484-2.548,8.789
				c-4.491,4.042-11.423-0.463-13.316-3.864l-0.384-0.648l2.092-0.299c2.185,2.149,6.078,5.267,9.523,2.256
				c1.366-1.132,2.911-3.075,1.701-4.526c-0.171-0.149-0.669-0.05-0.875,0.093c-0.826,0.683-1.061,1.701-1.936,2.398
				c-1.665,1.416-3.736,1.267-4.825-0.221c-1.694-2.406-0.334-7.608-0.939-8.298c-0.826-1.075-1.95-0.263-2.797,0.427
				c-0.142,0.128-0.434,1.153-0.377,1.295c0.071,0.043,0.918-0.071,1.502,0.712c0.847,1.181,0.249,3.046-1.068,3.779
				c-1.309,0.783-3.017,0.612-3.793-0.569c-1.601-2.427,0.327-5.814,2.235-7.693c1.488-1.224,3.687-1.637,5.323-0.591
				c0.207-1.715,0.541-3.729,1.907-4.904c1.765-1.452,4.526-2.897,6.505-0.883c0.612,0.648,0.968,1.601,0.527,2.477
				c0.747,0.071,1.808,0.071,2.32,0.626c0.698,0.69,1.238,1.687,1.061,2.733l2.135,0.043
				C240.768,245.957,241.558,249.366,242.896,250.86"/>
			<path fill="#176F39" d="M252.543,208.458l-2.477-0.441c-4.405,1.544-8.27,2.768-10.754,6.704
				c-1.601,2.726-2.591,7.16,0.342,9.629c0.74,0.641,1.601,0.399,2.534,0.327l-3.395,3.836l3.921-0.349l1.793-2.007l12.803,10.391
				l4.128-0.939l-15.052-11.586l2.349-3.281l-3.715,0.747l-1.317,1.495l-1.502-0.349c-1.082-2.939-1.431-4.939,0.278-7.843
				C244.757,211.191,248.564,210.18,252.543,208.458"/>
			<path fill="#176F39" d="M259.688,201.862l-3.708,1.63c-3.06,6.54-7.508,12.391-11.401,18.476l3.978-0.925l8.313-12.981
				l2.89,1.551l0.164,0.135c-0.043,0.057-0.669-0.128-0.747-0.135c-1.53,0.491-1.822-0.114-2.975,1.722
				c-0.505,0.733-0.406,2.37-0.32,3.26c-1.488,0.192-2.769,1.31-3.587,2.583c-1.601,2.491-0.207,5.736,1.808,7.217
				c2.683,1.95,5.992,0.619,7.992-2.512c0.584-0.89,1.416-3.53,0.349-4.156c-1.352-0.797-3.808-1.203-4.897,0.541
				c-0.733,1.117-0.655,2.761,0.42,3.473l0.79,0.32c-0.697,0.591-1.68,0.904-2.42,0.406c-1.374-0.932-1.58-2.968-0.584-4.533
				c0.818-1.267,3.075-2.733,4.562-1.893l0.47,0.584l0.626-2.221c-1.025-0.334-2.775-0.833-1.85-2.334
				c0.505-0.769,2.27-1.245,2.961-0.861l8.967,4.854l3.587-1.879l-17.017-8.704L259.688,201.862z"/>
			<path fill="#176F39" d="M273.327,199.32c-0.669,1.544,0.249,2.847,1.402,3.345c0.669,0.285,1.694,0.377,2.114-0.591
				c0.626-1.409,0.028-3.188-1.124-3.63C274.949,198.167,273.768,198.317,273.327,199.32 M263.035,201.313
				c-2.163-1.053-3.167-4.441-2.163-6.669c1.011-2.292,3.85-3.623,6.17-2.818c2.292,0.776,3.473,3.786,2.377,6.341
				C268.266,200.637,265.348,202.359,263.035,201.313 M272.878,205.64c-2.22-1.018-3.238-4.654-2.128-7.11
				c1.103-2.477,4.064-3.808,6.298-3.039c2.277,0.797,3.516,3.964,2.306,6.725C278.187,204.929,275.091,206.672,272.878,205.64
				 M263.733,195.079c-0.598,1.338,0.178,2.989,1.416,3.502c0.584,0.249,1.196,0.199,1.53-0.498c0.555-1.274,0.029-3.181-1.21-3.644
				C264.843,194.189,264.053,194.331,263.733,195.079"/>
		</g>
		<g>
			<path fill="#176F39" d="M33.171,144.257l-14.461-1.096c-0.598-0.057-1.011-0.164-1.196-0.263
				c-0.342-0.256-0.441-0.626-0.427-1.267c0.149-1.879,1.459-3.096,3.921-3.708c1.537-0.37,3.331-0.491,5.402-0.32
				c3.523,0.27,5.814,0.89,6.982,1.879c1.182,1.039,1.694,2.235,1.573,3.637c-0.014,0.512-0.185,0.818-0.463,0.968
				C34.21,144.243,33.755,144.3,33.171,144.257 M35.435,150.264l0.583-7.48c0.192-2.69-0.683-4.911-2.626-6.64
				c-1.751-1.53-3.95-2.427-6.619-2.64c-2.961-0.228-5.38,0.299-7.238,1.551c-2.043,1.395-3.203,3.537-3.409,6.455l-0.569,7.224
				l0.747,0.071c0.1-0.648,0.285-1.06,0.463-1.31c0.32-0.42,0.875-0.598,1.637-0.541l14.504,1.117
				c0.776,0.05,1.302,0.342,1.537,0.818c0.157,0.278,0.242,0.719,0.242,1.317L35.435,150.264z"/>
			<path fill="#176F39" d="M35.907,133.625c0.128-0.619,0.128-1.082-0.014-1.359c-0.192-0.491-0.712-0.84-1.53-1.046l-13.942-3.153
				c-0.804-0.192-1.416-0.114-1.779,0.199c-0.206,0.199-0.455,0.605-0.69,1.26l-0.726-0.157l1.765-7.793l0.726,0.149
				c-0.085,0.705-0.085,1.167,0.028,1.502c0.192,0.498,0.705,0.854,1.523,1.032l5.992,1.359l1.224-5.473l-5.964-1.352
				c-0.818-0.178-1.445-0.085-1.808,0.249c-0.235,0.185-0.455,0.64-0.676,1.338l-0.712-0.164l1.765-7.843l0.733,0.171
				c-0.093,0.676-0.093,1.174,0.043,1.466c0.199,0.477,0.683,0.804,1.53,1.011l13.914,3.174c0.833,0.185,1.459,0.085,1.865-0.292
				c0.263-0.228,0.455-0.655,0.64-1.281l0.705,0.164l-1.765,7.836l-0.747-0.142c0.128-0.683,0.128-1.174-0.014-1.487
				c-0.192-0.491-0.698-0.833-1.544-1.011l-6.619-1.516l-1.26,5.452l6.64,1.516c0.84,0.178,1.473,0.107,1.893-0.299
				c0.206-0.235,0.434-0.669,0.612-1.295l0.712,0.171l-1.772,7.779L35.907,133.625z"/>
			<path fill="#176F39" d="M35.709,110.063l-5.572-4.469l0.043-0.1l7.188,0.37L35.709,110.063z M40.606,116.654l1.779-4.519
				l-0.669-0.27c-0.235,0.505-0.441,0.811-0.626,1.053c-0.334,0.334-0.705,0.427-1.082,0.292c-0.334-0.135-0.804-0.413-1.445-0.89
				c-0.306-0.242-0.918-0.726-1.893-1.502l1.907-4.882l1.879,0.1c0.427,0.028,0.79,0.043,1.068,0.085
				c0.484,0.028,0.818,0.135,1.039,0.192c0.463,0.192,0.754,0.427,0.754,0.705c0.043,0.27-0.085,0.754-0.306,1.502l0.683,0.256
				l2.775-7.131l-0.69-0.263c-0.171,0.498-0.562,0.811-1.132,0.89c-0.569,0.064-1.779,0.064-3.623,0.014l-16.333-0.712l-0.263,0.605
				l13.131,10.761c1.06,0.854,1.701,1.459,1.993,1.793c0.384,0.541,0.541,1.089,0.384,1.623L40.606,116.654z"/>
			<path fill="#176F39" d="M45.958,100.89c0.277-0.584,0.448-1.032,0.434-1.359c-0.057-0.555-0.463-1.039-1.181-1.452l-12.419-7.117
				c-0.719-0.413-1.331-0.527-1.794-0.306c-0.292,0.142-0.619,0.505-1.039,1.068l-0.64-0.356l3.993-6.96l0.626,0.349
				c-0.32,0.776-0.42,1.345-0.32,1.737c0.135,0.37,0.662,0.854,1.665,1.423l5.466,3.11l-3.017-7.601
				c-0.228-0.548-0.363-0.868-0.463-1.082c-0.135-0.164-0.306-0.327-0.541-0.484c-0.32-0.178-0.626-0.178-0.832,0
				c-0.235,0.185-0.555,0.619-1.004,1.274l-0.676-0.37l3.43-5.914l0.626,0.356c-0.484,1.11-0.626,2.228-0.363,3.295
				c0.235,1.053,1.003,3.267,2.377,6.626l13.287-0.733c0.263,0,0.463-0.064,0.612-0.157c0.114-0.085,0.263-0.263,0.463-0.512
				l0.64,0.377l-3.921,6.832l-0.655-0.356c0.377-0.626,0.569-1.067,0.64-1.331c0.071-0.256,0-0.448-0.249-0.591
				c-0.114-0.071-0.249-0.107-0.477-0.149c-0.22-0.028-0.512-0.028-0.932,0l-7.921,0.434l0.32,0.875l5.032,2.861
				c0.74,0.427,1.352,0.534,1.836,0.292c0.306-0.142,0.626-0.477,0.989-1.046l0.648,0.363l-3.985,6.989L45.958,100.89z"/>
			<path fill="#176F39" d="M52.543,78.399l-4.028-5.907l0.071-0.071l6.768,2.42L52.543,78.399z M55.34,86.128l3.003-3.808
				l-0.584-0.463c-0.334,0.391-0.64,0.697-0.89,0.826c-0.434,0.228-0.79,0.228-1.125-0.057c-0.278-0.206-0.64-0.612-1.103-1.253
				c-0.235-0.32-0.676-0.947-1.374-1.957l3.224-4.128l1.793,0.633c0.363,0.142,0.726,0.27,0.989,0.377
				c0.441,0.206,0.747,0.334,0.932,0.52c0.399,0.299,0.569,0.576,0.512,0.833c-0.043,0.292-0.306,0.733-0.74,1.359l0.569,0.456
				l4.768-6.014l-0.584-0.448c-0.349,0.434-0.776,0.612-1.359,0.534c-0.584-0.085-1.751-0.42-3.459-1.046l-15.429-5.452l-0.42,0.52
				l9.437,14.12c0.74,1.117,1.196,1.893,1.352,2.292c0.249,0.641,0.192,1.217-0.099,1.701L55.34,86.128z"/>
			<path fill="#176F39" d="M64.959,64.082l0.498-0.448c1.751,1.359,3.267,2.142,4.576,2.327c1.317,0.192,2.363-0.114,3.153-0.826
				c0.783-0.705,1.139-1.466,0.989-2.285c-0.128-0.797-0.448-1.495-0.961-2.05c-0.584-0.669-1.238-1.025-1.971-1.153
				c-0.477-0.071-1.267,0-2.334,0.213l-1.779,0.292c-1.722,0.278-3.131,0.313-4.199,0.043c-1.089-0.299-2.071-0.939-2.975-1.936
				c-0.961-1.075-1.573-2.334-1.794-3.815c-0.221-1.48,0.263-2.761,1.502-3.9c0.64-0.548,1.359-0.996,2.178-1.295
				c0.797-0.292,1.267-0.441,1.324-0.555c0.206-0.164,0.278-0.363,0.221-0.527c-0.028-0.199-0.135-0.434-0.278-0.726l0.527-0.434
				l4.299,4.783l-0.498,0.413c-1.238-0.897-2.519-1.495-3.8-1.801c-1.317-0.263-2.398-0.057-3.224,0.705
				c-0.569,0.512-0.833,1.132-0.833,1.85c0.043,0.712,0.306,1.345,0.833,1.914c0.626,0.697,1.238,1.068,1.879,1.146
				c0.626,0.064,1.793-0.057,3.487-0.363l2.042-0.342c0.904-0.171,1.715-0.171,2.463-0.028c1.388,0.249,2.612,0.939,3.687,2.149
				c0.996,1.089,1.594,2.462,1.808,4.05c0.192,1.601-0.463,3.096-2.007,4.477c-0.37,0.299-0.719,0.569-1.153,0.833
				c-0.441,0.221-0.89,0.441-1.402,0.605l-0.449,0.135c-0.107,0.043-0.221,0.114-0.327,0.149c-0.071,0.028-0.142,0.107-0.214,0.135
				c-0.164,0.171-0.235,0.342-0.178,0.52c0.057,0.178,0.149,0.413,0.306,0.69l-0.513,0.47L64.959,64.082z"/>
			<path fill="#176F39" d="M67.211,44.622l11.593-8.177l3.444,4.882l-0.541,0.391c-1.43-1.63-2.783-2.42-4.057-2.462
				c-0.712,0-1.587,0.32-2.562,0.982l8.967,12.654c0.612,0.918,1.153,1.431,1.601,1.523c0.413,0.142,1.067-0.078,1.85-0.626
				l0.399,0.605l-6.868,4.854l-0.413-0.612c0.761-0.555,1.139-1.032,1.21-1.53c0.028-0.47-0.263-1.139-0.861-2.014l-8.967-12.697
				c-0.89,0.69-1.487,1.381-1.736,2.064c-0.477,1.302-0.171,2.833,0.918,4.654l-0.534,0.391L67.211,44.622z"/>
			<path fill="#176F39" d="M98.053,48.096c-1.566,0.797-3.252,0.206-5.046-1.822c-0.968-1.11-1.957-2.655-3.01-4.683
				c-1.018-2-1.715-3.701-2.036-5.117c-0.633-2.669-0.149-4.398,1.438-5.21c1.153-0.605,2.413-0.363,3.793,0.697
				c1.402,1.103,2.818,2.996,4.249,5.779c1.032,2.028,1.729,3.765,2.085,5.188C100.11,45.548,99.626,47.278,98.053,48.096
				 M88.965,30.361c-2.213,1.153-3.558,2.989-4.043,5.487c-0.491,2.448-0.014,5.081,1.402,7.814c1.267,2.484,3.032,4.27,5.252,5.323
				c2.377,1.153,4.697,1.153,6.953-0.028c2.114-1.082,3.444-2.833,3.971-5.267c0.534-2.491,0.1-5.117-1.302-7.864
				c-1.416-2.761-3.267-4.619-5.644-5.637C93.27,29.222,91.078,29.265,88.965,30.361"/>
			<path fill="#176F39" d="M110.983,22.034c1.096,0.128,1.708,0.164,1.808,0.128c0.292-0.128,0.455-0.335,0.541-0.676
				c0.085-0.32,0.085-0.641,0.028-1.003l0.626-0.192l2.249,6.569l-0.612,0.178c-0.996-1.253-1.943-2.142-2.775-2.79
				c-1.573-1.146-3.003-1.502-4.356-1.046c-1.473,0.512-2.277,1.694-2.349,3.516c-0.078,1.836,0.349,4.099,1.295,6.818
				c0.655,1.986,1.402,3.587,2.221,4.74c1.502,2.192,3.202,2.968,5.074,2.313c1.146-0.37,2.085-1.139,2.797-2.292
				c0.391-0.64,0.818-1.608,1.224-2.904l0.918,0.455c-0.463,1.544-0.932,2.676-1.395,3.452c-0.861,1.359-2.014,2.306-3.43,2.79
				c-2.228,0.769-4.349,0.569-6.405-0.548c-2.256-1.267-3.936-3.423-4.982-6.469c-0.996-3.032-1.082-5.807-0.107-8.213
				c0.875-2.263,2.391-3.779,4.541-4.519C108.841,22.034,109.873,21.927,110.983,22.034"/>
			<path fill="#176F39" d="M121.658,38.367c0.655-0.149,1.067-0.32,1.324-0.569c0.37-0.391,0.498-1.003,0.356-1.836l-2.541-14.056
				c-0.178-0.847-0.484-1.374-0.947-1.573c-0.292-0.149-0.79-0.185-1.487-0.1l-0.135-0.726l7.921-1.445l0.121,0.733
				c-0.79,0.221-1.288,0.512-1.509,0.868c-0.256,0.327-0.256,1.053-0.028,2.164l1.096,6.199l3.879-7.231
				c0.292-0.491,0.47-0.847,0.541-1.039c0.057-0.199,0.086-0.448,0.029-0.712c-0.071-0.363-0.263-0.548-0.541-0.64
				c-0.292-0.057-0.818-0.036-1.63,0.057l-0.135-0.747l6.725-1.217l0.128,0.747c-1.167,0.327-2.085,0.947-2.74,1.801
				c-0.669,0.89-1.85,2.932-3.544,6.128l9.102,9.672c0.192,0.228,0.363,0.334,0.541,0.384c0.157,0.021,0.377,0.021,0.683,0.021
				l0.142,0.712l-7.8,1.431l-0.128-0.733c0.698-0.142,1.182-0.27,1.431-0.391c0.242-0.1,0.349-0.292,0.292-0.569
				c-0.021-0.114-0.093-0.249-0.206-0.448c-0.121-0.164-0.32-0.406-0.569-0.697l-5.452-5.822l-0.427,0.84l1.011,5.694
				c0.142,0.854,0.477,1.381,0.989,1.573c0.306,0.142,0.769,0.178,1.402,0.093l0.142,0.726l-7.893,1.459L121.658,38.367z"/>
			<path fill="#176F39" d="M144.677,35.622v-0.747c0.697-0.007,1.196-0.121,1.459-0.32c0.463-0.299,0.669-0.868,0.697-1.729
				l0.107-14.305c0.028-0.847-0.178-1.423-0.634-1.722c-0.27-0.171-0.769-0.306-1.423-0.334v-0.769l13.679,0.171l-0.071,5.921
				h-0.584c-0.306-1.907-0.804-3.21-1.502-3.921c-0.705-0.697-2.028-1.068-3.914-1.082c-0.726,0-1.196,0.064-1.395,0.263
				c-0.192,0.178-0.32,0.555-0.32,1.11l-0.064,6.854c1.359,0.014,2.277-0.263,2.775-0.904c0.491-0.612,0.847-1.737,1.139-3.381
				h0.584l-0.064,9.871l-0.612-0.014c-0.171-1.665-0.505-2.847-1.018-3.544c-0.526-0.697-1.445-1.039-2.804-1.06l-0.085,7.145
				c0,0.626,0.128,1.06,0.377,1.267c0.263,0.221,0.804,0.363,1.609,0.363c1.516,0.021,2.769-0.335,3.729-1.053
				c0.94-0.733,1.808-2.064,2.555-4.078l0.683,0.014l-1.018,6.135L144.677,35.622z"/>
			<path fill="#176F39" d="M160.426,35.038c0.583-0.043,1.039-0.135,1.324-0.214c0.47-0.185,0.904-0.52,1.345-1.032l4.918-5.85
				l-3.21-9.145c-0.249-0.683-0.484-1.153-0.719-1.438c-0.228-0.27-0.52-0.456-0.861-0.562l0.093-0.726l8.121,1.253l-0.114,0.705
				c-0.776-0.05-1.26-0.05-1.544,0c-0.263,0.071-0.441,0.292-0.47,0.655c-0.043,0.171-0.043,0.334,0.014,0.52
				c0.014,0.164,0.085,0.356,0.178,0.584l1.587,4.541c1.63-1.879,2.555-3.06,2.904-3.53c0.334-0.463,0.527-0.861,0.569-1.238
				c0.071-0.384-0.093-0.705-0.427-0.932c-0.214-0.107-0.584-0.249-1.11-0.334l0.078-0.719l5.857,0.89l-0.114,0.712
				c-1.032,0-1.879,0.349-2.612,1.039c-0.683,0.726-2.27,2.505-4.697,5.38l3.096,8.825c0.349,1.238,0.641,2.021,0.833,2.32
				c0.199,0.32,0.505,0.555,0.932,0.697l-0.135,0.733l-7.971-1.196l0.128-0.726c0.669,0.078,1.124,0.078,1.359,0.021
				c0.363-0.078,0.576-0.292,0.641-0.648c0-0.135,0-0.356-0.043-0.626c-0.021-0.242-0.093-0.576-0.235-0.954l-1.665-4.818
				l-1.11,1.231c-0.932,1.117-1.53,1.879-1.893,2.285c-0.569,0.74-0.875,1.331-0.918,1.68c-0.085,0.512,0.142,0.904,0.655,1.167
				c0.278,0.164,0.626,0.263,1.068,0.349l-0.107,0.726l-5.871-0.89L160.426,35.038z"/>
			<path fill="#176F39" d="M190.742,21.27c-2.171-0.655-4.306-0.32-6.341,1.018c-2.163,1.43-3.736,3.687-4.64,6.74
				c-0.918,3.103-0.833,5.815,0.278,8.149c1.018,2.121,2.64,3.523,4.854,4.149c1.473,0.484,2.932,0.391,4.448-0.249
				c0.819-0.363,1.872-1.011,3.124-2l-0.455-0.875c-1.124,0.79-1.993,1.338-2.711,1.623c-1.253,0.52-2.434,0.612-3.63,0.27
				c-1.836-0.584-2.804-2.199-2.754-4.84c0.014-1.43,0.334-3.16,0.961-5.188c0.819-2.761,1.779-4.847,2.918-6.284
				c1.103-1.445,2.434-1.929,3.95-1.48c1.345,0.413,2.32,1.523,2.932,3.373c0.292,0.989,0.527,2.285,0.626,3.893l0.598,0.178
				l1.986-6.597l-0.641-0.228c-0.135,0.278-0.313,0.576-0.584,0.797c-0.263,0.228-0.527,0.299-0.804,0.206
				c-0.135-0.036-0.598-0.406-1.459-1.139C192.593,22.06,191.689,21.569,190.742,21.27"/>
			<path fill="#176F39" d="M192.522,42.231c0.569,0.235,1.039,0.342,1.338,0.263c0.541-0.071,0.954-0.512,1.345-1.295l6.085-12.917
				c0.349-0.74,0.434-1.324,0.199-1.772c-0.128-0.27-0.505-0.569-1.124-0.947l0.327-0.669l7.245,3.423l-0.334,0.648
				c-0.655-0.228-1.153-0.342-1.43-0.285c-0.527,0.057-0.989,0.491-1.359,1.26l-2.619,5.551l5.06,2.398l2.619-5.558
				c0.37-0.761,0.427-1.374,0.178-1.815c-0.171-0.292-0.555-0.598-1.153-0.947l0.32-0.683l7.281,3.445l-0.334,0.669
				c-0.676-0.242-1.153-0.356-1.459-0.263c-0.484,0.078-0.961,0.498-1.302,1.253l-6.078,12.903
				c-0.391,0.811-0.441,1.423-0.121,1.914c0.164,0.299,0.541,0.569,1.096,0.847l-0.306,0.697l-7.302-3.459l0.306-0.655
				c0.641,0.27,1.132,0.356,1.488,0.299c0.491-0.085,0.918-0.534,1.309-1.274l2.875-6.149l-5.06-2.398l-2.89,6.142
				c-0.349,0.804-0.427,1.423-0.114,1.914c0.185,0.278,0.562,0.562,1.16,0.897l-0.334,0.641l-7.259-3.381L192.522,42.231z"/>
			<path fill="#176F39" d="M215.555,47.073l5.587-4.498l0.1,0.064l-1.879,6.982L215.555,47.073z M208.118,50.46l4.014,2.669
				l0.42-0.612c-0.427-0.278-0.697-0.569-0.89-0.804c-0.263-0.406-0.292-0.769-0.057-1.139c0.214-0.278,0.598-0.69,1.167-1.196
				c0.306-0.242,0.89-0.74,1.879-1.516l4.32,2.889l-0.484,1.829c-0.099,0.391-0.192,0.74-0.263,0.996
				c-0.157,0.484-0.306,0.797-0.484,0.996c-0.228,0.434-0.52,0.619-0.797,0.605c-0.263-0.05-0.733-0.27-1.402-0.64l-0.42,0.605
				l6.398,4.249l0.413-0.612c-0.441-0.285-0.676-0.719-0.662-1.324c0.064-0.548,0.32-1.744,0.79-3.523l4.199-15.814l-0.527-0.377
				L212.388,48.29c-1.075,0.818-1.779,1.331-2.156,1.509c-0.641,0.306-1.21,0.32-1.708,0.057L208.118,50.46z"/>
			<path fill="#176F39" d="M222.198,58.94c0.655,0.584,1.224,0.804,1.68,0.669c0.434-0.1,0.918-0.448,1.423-1.032l9.266-10.412
				c0.142-1.21,0.228-1.943,0.228-2.206c-0.014-0.249-0.128-0.491-0.306-0.719l0.484-0.569l3.751,3.345l-2.178,14.632l0.093,0.064
				l5.786-6.484c0.683-0.726,1.039-1.366,1.11-1.886c0.071-0.498-0.192-1.089-0.818-1.744l0.512-0.555l3.779,3.381l-0.484,0.598
				c-0.655-0.399-1.139-0.598-1.53-0.555c-0.334,0.036-0.818,0.384-1.445,1.053L231.97,69.494l-0.484-0.463l2.761-18.682
				l-0.121-0.128l-7.672,8.633c-0.626,0.697-0.975,1.224-1.103,1.63c-0.135,0.683,0.128,1.345,0.797,2.057l-0.477,0.548
				l-3.985-3.566L222.198,58.94z"/>
			<path fill="#176F39" d="M248.901,61.455c2.598-0.142,4.64,0.74,6.227,2.605c0.626,0.754,1.096,1.651,1.338,2.69
				c0.299,1.046,0.498,1.63,0.619,1.822c0.185,0.178,0.42,0.285,0.683,0.263c0.235-0.028,0.612-0.149,1.032-0.37l0.413,0.527
				l-5.295,4.434l-0.42-0.505c0.826-1.374,1.338-2.583,1.63-3.587c0.512-1.865,0.334-3.345-0.555-4.391
				c-1.004-1.167-2.334-1.466-4.035-0.947c-1.708,0.534-3.736,1.744-6.042,3.672c-1.879,1.559-3.324,3.21-4.42,4.946
				c-1.075,1.737-1.018,3.309,0.178,4.754c0.655,0.754,1.31,1.089,1.936,1.018c0.334-0.014,0.733-0.235,1.224-0.626l2.363-1.971
				c0.676-0.591,1.025-1.16,0.954-1.687c-0.043-0.334-0.349-0.833-0.89-1.523l0.584-0.463l5.174,6.199l-0.584,0.463
				c-0.541-0.569-1.061-0.861-1.488-0.818c-0.463,0.036-1.06,0.37-1.85,1.011l-2.932,2.441c-0.64-0.142-1.473-0.512-2.555-1.153
				c-1.06-0.641-2.057-1.495-2.961-2.64c-1.715-1.971-2.27-4.256-1.658-6.804c0.569-2.37,1.921-4.491,4.171-6.355
				C243.997,62.58,246.382,61.591,248.901,61.455"/>
			<path fill="#176F39" d="M245.12,83.946l0.655-0.377c0.399,0.548,0.733,0.904,1.053,1.046c0.491,0.214,1.089,0.093,1.808-0.334
				l12.149-7.558c0.74-0.42,1.11-0.925,1.11-1.452c0-0.32-0.164-0.804-0.427-1.409l0.612-0.413l7.188,11.636l-5.06,3.131
				l-0.32-0.505c1.459-1.245,2.32-2.363,2.526-3.359c0.221-0.961-0.192-2.285-1.181-3.9c-0.391-0.619-0.705-0.939-0.982-1.018
				c-0.242-0.085-0.612,0.036-1.089,0.32l-5.85,3.608c0.697,1.167,1.445,1.793,2.235,1.865c0.797,0.107,1.936-0.199,3.494-0.826
				l0.32,0.505l-8.398,5.167l-0.292-0.498c1.302-1.025,2.142-1.929,2.42-2.747c0.32-0.804,0.149-1.772-0.626-2.939l-6.035,3.758
				c-0.541,0.313-0.818,0.648-0.89,0.975c-0.043,0.356,0.142,0.875,0.569,1.566c0.804,1.295,1.765,2.142,2.875,2.605
				c1.117,0.399,2.712,0.399,4.811,0l0.363,0.512l-5.758,2.441L245.12,83.946z"/>
			<path fill="#176F39" d="M256.101,102.906l4.868,12.761l6.583-1.473l-0.263-0.655c-2.32,0.185-4.057-0.071-5.11-0.69
				c-1.103-0.64-1.865-1.63-2.377-2.946c-0.306-0.726-0.391-1.274-0.306-1.601c0.092-0.334,0.455-0.598,1.067-0.847l13.01-4.953
				c1.096-0.427,1.822-0.541,2.249-0.342c0.391,0.199,0.769,0.747,1.16,1.658l0.69-0.285l-2.946-7.729l-0.705,0.249
				c0.207,0.69,0.263,1.167,0.207,1.459c-0.142,0.512-0.598,0.947-1.416,1.231l-13.359,5.096c-0.783,0.32-1.445,0.306-1.865-0.021
				c-0.278-0.171-0.541-0.562-0.776-1.167L256.101,102.906z"/>
			<path fill="#176F39" d="M280.191,110.246l3.501,13.721l-5.765,1.53l-0.171-0.697c2-0.74,3.252-1.729,3.729-2.904
				c0.278-0.676,0.278-1.601,0-2.726l-15.031,3.85c-1.068,0.285-1.736,0.584-1.986,0.961c-0.306,0.384-0.32,1.032-0.043,1.957
				l-0.733,0.192l-2.085-8.135l0.705-0.185c0.235,0.911,0.569,1.445,1.004,1.644c0.427,0.213,1.153,0.178,2.192-0.078l15.031-3.864
				c-0.292-1.082-0.769-1.9-1.309-2.363c-1.025-0.911-2.569-1.16-4.654-0.776l-0.178-0.69L280.191,110.246z"/>
			<path fill="#176F39" d="M267.96,134.935l14.398-1.658c0.598-0.057,1.018-0.043,1.253,0.043c0.349,0.157,0.541,0.541,0.612,1.167
				c0.221,1.85-0.804,3.309-3.146,4.356c-1.388,0.676-3.153,1.132-5.224,1.359c-3.487,0.391-5.893,0.221-7.231-0.541
				c-1.317-0.761-2.085-1.843-2.221-3.252c-0.057-0.505,0.043-0.84,0.278-1.032C266.928,135.184,267.348,135.035,267.96,134.935
				 M264.608,129.483l0.832,7.437c0.306,2.697,1.601,4.711,3.822,6.049c2.057,1.189,4.37,1.616,7.01,1.31
				c2.932-0.342,5.238-1.288,6.825-2.882c1.736-1.751,2.484-4.078,2.114-6.989l-0.826-7.188l-0.733,0.064
				c0.028,0.641-0.043,1.075-0.199,1.352c-0.249,0.47-0.776,0.762-1.495,0.883l-14.476,1.63c-0.761,0.071-1.331-0.078-1.665-0.491
				c-0.221-0.249-0.377-0.662-0.47-1.26L264.608,129.483z"/>
		</g>
		<path fill="#176F39" d="M268.32,146.525c-0.712,0.021-1.281,0.206-1.765,0.612c-0.47,0.391-0.726,0.868-0.697,1.402
			c0.043,0.562,0.263,1.032,0.74,1.416c0.512,0.377,1.124,0.541,1.779,0.541c0.733-0.021,1.302-0.235,1.751-0.605
			c0.512-0.413,0.712-0.847,0.683-1.438c0-0.562-0.228-1.003-0.712-1.395C269.615,146.681,269.003,146.511,268.32,146.525"/>
	</g>
	<g>
		<g id="তারা">
			<polygon fill="#8A0C1F" points="29.75,157.52 32.304,165.455 40.66,165.455 33.92,170.337 36.503,178.287 29.75,173.369 
				22.967,178.287 25.565,170.337 18.825,165.455 27.166,165.455 			"/>
			<polygon fill="#8A0C1F" points="275.52,157.52 278.089,165.455 286.43,165.455 279.69,170.337 282.288,178.287 275.52,173.369 
				268.794,178.287 271.349,170.337 264.609,165.455 272.922,165.455 			"/>
		</g>
		<g>
			<path fill="#8A0C1F" d="M143.165,253.684l-0.854-0.071l-4.498-13.095c-2.925-0.441-5.758-1.025-8.569-1.708l-9.715,10.298
				l-0.79-0.249c-5.032-1.644-9.757-3.779-14.262-6.078l-0.947-0.384l0.697-13.956c-2.477-1.502-4.882-3.131-7.174-4.84
				l-13.33,5.772l-0.527-0.861c-3.381-2.925-6.505-6.071-9.451-9.387l-0.548-0.626l5.622-13.003
				c-1.587-2.107-3.117-4.291-4.519-6.526l-14.305,0.356l-0.377-0.719c-2.74-5.21-5.032-10.654-6.839-16.319l-0.263-0.818
				l10.583-9.081c-0.626-2.619-1.16-5.288-1.559-8.014l-13.266-5.608l-0.036-0.804c-0.128-2.249-0.32-4.569-0.32-6.989
				c0-3.089,0.192-6.149,0.47-9.145l0.071-0.826l13.273-4.711c0.434-2.583,0.975-5.124,1.601-7.615L53.1,118.847l0.263-0.776
				c1.765-5.202,3.893-10.234,6.441-15.081l0.399-0.747l13.914,1.096c1.409-2.285,2.925-4.519,4.548-6.661l-5.501-13.152
				l0.527-0.598c3.53-4,7.309-7.765,11.394-11.202l0.612-0.512l13.287,5.751c1.95-1.374,3.936-2.69,6.049-3.929l-0.584-13.928
				l0.754-0.363c4.349-2.178,8.825-4.057,13.522-5.629l0.747-0.256l10.191,10.199c2.598-0.626,5.252-1.146,7.921-1.53l4.035-13.116
				l0.875-0.078c2.79-0.256,5.644-0.456,8.533-0.456c2.626,0,5.188,0.206,7.658,0.399l0.804,0.057l5.046,13.209
				c2.74,0.413,5.451,0.932,8.12,1.594l9.345-10.469l0.804,0.263c4.904,1.573,9.579,3.601,14.106,5.843l0.769,0.384l-0.755,13.864
				c2.477,1.452,4.84,3.018,7.131,4.669l12.967-5.822l0.641,0.527c4.142,3.537,8.007,7.437,11.565,11.551l0.534,0.626l-5.786,12.953
				c1.665,2.292,3.252,4.647,4.725,7.074l13.75-1.032l0.399,0.769c2.434,4.74,4.519,9.686,6.178,14.846l0.235,0.754l-10.206,10.263
				c0.626,2.704,1.181,5.459,1.559,8.263l12.995,4.185l0.086,0.868c0.206,2.441,0.377,4.911,0.377,7.459
				c0,2.868-0.171,5.608-0.405,8.384l-0.071,0.818l-13.216,4.918c-0.434,2.74-1.004,5.437-1.673,8.078l10.341,9.572l-0.263,0.79
				c-1.552,4.654-3.473,9.145-5.658,13.494l-0.342,0.712l-14.39,0.149c-1.487,2.434-3.074,4.783-4.754,7.06l6.533,12.028
				l-0.584,0.676c-3.38,3.978-7.074,7.672-11.024,11.102l-0.64,0.548l-12.718-5.864c-2.434,1.801-4.946,3.509-7.515,5.074
				l0.384,14.134l-0.733,0.377c-4.406,2.213-8.982,4.142-13.707,5.722l-0.776,0.256l-9.999-10.227
				c-2.612,0.648-5.267,1.203-7.992,1.63l-5.266,13.237l-0.818,0.057c-2.548,0.178-5.103,0.399-7.757,0.399
				C148.36,254.097,145.748,253.877,143.165,253.684 M151.029,251.5c2.249,0,4.477-0.164,6.768-0.334l5.217-13.095l0.733-0.107
				c3.146-0.477,6.199-1.11,9.202-1.879l0.726-0.178l9.907,10.127c4.071-1.402,8.035-3.067,11.857-4.968l-0.363-13.237l1.295-0.028
				l0.669,1.103l-0.669-1.103l-1.295,0.028l-0.021-0.769l0.648-0.384c2.946-1.744,5.8-3.701,8.576-5.786l0.626-0.456l12.597,5.807
				c3.402-2.989,6.604-6.185,9.537-9.587l-6.476-11.942l0.512-0.662c1.957-2.591,3.793-5.302,5.473-8.113l0.377-0.626l14.248-0.149
				c1.865-3.765,3.516-7.658,4.896-11.658l-10.248-9.487l0.192-0.747c0.797-3.046,1.459-6.156,1.936-9.302l0.114-0.762l13.088-4.889
				c0.199-2.455,0.334-4.854,0.334-7.345c0-2.149-0.121-4.256-0.306-6.377l-12.939-4.156l-0.1-0.833
				c-0.37-3.203-1.025-6.384-1.765-9.515l-0.178-0.697l10.106-10.163c-1.459-4.484-3.281-8.775-5.366-12.96l-13.636,1.039
				l-0.42-0.697c-1.651-2.804-3.487-5.53-5.423-8.156l-0.456-0.612l5.729-12.832c-3.146-3.587-6.533-6.989-10.135-10.113
				l-12.86,5.765l-0.598-0.427c-2.64-1.943-5.338-3.729-8.199-5.38l-0.697-0.399l0.754-13.743c-3.964-1.929-7.992-3.665-12.191-5.06
				l-9.273,10.384l-0.761-0.199c-3.046-0.79-6.163-1.388-9.359-1.85l-0.747-0.114l-5.003-13.081
				c-2.199-0.171-4.405-0.327-6.633-0.327c-2.477,0-4.961,0.157-7.452,0.37l-3.971,13.031l-0.84,0.1
				c-3.11,0.434-6.185,1.025-9.188,1.779l-0.719,0.185l-10.077-10.106c-4.021,1.388-7.886,3.018-11.679,4.861l0.584,13.821
				l-0.683,0.391c-2.47,1.416-4.818,2.946-7.131,4.598l-0.584,0.427l-13.145-5.694c-3.53,3.025-6.854,6.313-9.971,9.8l5.466,13.038
				l-0.456,0.598c-1.907,2.448-3.644,5.046-5.274,7.701l-0.413,0.676l-13.793-1.082c-2.178,4.235-4.042,8.626-5.615,13.166
				l10.135,9.729l-0.192,0.733c-0.754,2.904-1.395,5.857-1.865,8.882l-0.114,0.754l-13.159,4.669
				c-0.228,2.676-0.391,5.387-0.391,8.078c0,2.014,0.149,4,0.277,6.035l13.109,5.544l0.107,0.733
				c0.434,3.153,1.046,6.22,1.793,9.252l0.214,0.776l-10.483,9.003c1.63,4.975,3.644,9.75,6.035,14.383l14.148-0.356l0.406,0.633
				c1.608,2.591,3.359,5.124,5.224,7.551l0.456,0.598l-5.558,12.889c2.612,2.889,5.352,5.644,8.27,8.199l12.903-5.594l0.612,0.456
				c2.612,1.986,5.366,3.857,8.213,5.558l0.669,0.391l-0.697,13.729c4.085,2.057,8.227,3.914,12.583,5.38l9.615-10.206l0.74,0.192
				c3.224,0.804,6.491,1.48,9.829,1.943l0.776,0.121l4.462,12.974C146.51,251.336,148.78,251.5,151.029,251.5"/>
			<path fill="#176F39" d="M196.763,185.507c7.715-1.459,10.882,3.843,15.109,10.17c0,0,3.196-3.131-1.381-10.17
				c-1.857-2.783-5.658-7.722-14.12-6.348c-3.53,1.046-4.576,3.879-6.298,2.811c-1.751-1.068,0.712-6.697-9.864-8.063
				c-6.284,0.292-9.124,8.063-9.124,8.063s-4.918-3.907-10.562-0.761c-5.629,3.21-3.167,10.953-3.167,10.953
				s-6.69,4.889-3.508,12.661c0,0,3.174-7.729,8.426-8.085c0,0-3.473-10.54,0.74-11.615c4.206-1.075,8.768,3.879,8.768,3.879
				s9.494-11.622,11.956-8.448c2.455,3.139-1.06,5.267-1.06,5.267s-10.199,8.761-11.964,8.441c-1.744-0.335-0.363-4.519-4.199-3.494
				c-3.864,1.06-1.061,7.708-1.061,7.708s-5.615-1.708-2.441,10.227c0,0-1.779,4.185-8.12,4.562v7.395c0,0,6.341-2.448,10.561,4.569
				c0,0,3.16-4.242-3.181-9.871c0,0,2.477-4.192,5.644,0c0,0,8.476-9.821,8.782-4.889c0,0-4.583,4.562-3.53,11.593
				c0,0,2.491,1.765,5.644-0.363c0,0-1.53-5.978,3.487-9.843c2.434-4.199,3.509-8.049,9.494-3.153c6.718,3.509,2.797-3.879,0-4.918
				c-2.776-1.103,3.16-2.491,8.12,3.516c0,0,2.463-7.046-7.743-9.494c0,0-2.142-5.259,5.978-1.765
				c8.106,3.53,8.797,7.017,8.797,7.017s3.544-6.007-3.864-10.896c-4.79-3.146-8.825-2.854-11.287-2.121
				C191.796,190.041,189.063,186.916,196.763,185.507 M173.548,204.822c-3.167-6.035,1.359-3.487,1.359-3.487
				s0.755,0.69,4.227-1.765c3.487-2.519,5.295,0,5.295,0S176.7,210.801,173.548,204.822"/>
			<g>
				<path fill="#8A0021" d="M149.734,230.814V72.476v-1.302h1.295c44.075,0,79.774,35.72,79.774,79.802
					c0,44.118-35.698,79.838-79.774,79.838H149.734z M152.324,228.202c42.047-0.747,75.81-34.973,75.895-77.226
					c-0.085-42.218-33.848-76.436-75.895-77.197V228.202z M151.029,73.764v-1.288V73.764z"/>
				<g>
					<path fill="#8A0021" d="M112.538,126.344h-1.288v-14.789h15.429v14.789H112.538z M124.089,114.138h-10.256v9.622h10.256
						V114.138z"/>
					<path fill="#8A0021" d="M112.538,138.557h-1.288v-14.803h15.429v14.803H112.538z M124.089,126.344h-10.256v9.622h10.256
						V126.344z"/>
					<path fill="#8A0021" d="M98.404,114.138V99.321h14.134v1.288v-1.288h1.295v14.817H98.404z M101.001,111.548h10.241v-9.636
						h-10.241V111.548z"/>
					<path fill="#8A0021" d="M111.25,114.138V99.321h15.429v13.529v1.288H111.25z M125.384,112.85v-1.295V112.85z M113.833,111.555
						h10.256v-9.643h-10.256V111.555z"/>
					<path fill="#8A0021" d="M98.418,199.648v-14.817h14.12v1.302v-1.302h1.295v14.817H98.418z M100.987,197.051h10.256v-9.622
						h-10.256V197.051z"/>
					<path fill="#8A0021" d="M112.552,150.776h-1.302v-14.81h15.429v14.81H112.552z M113.833,148.179h10.256v-9.622h-10.256V148.179
						z"/>
					<path fill="#8A0021" d="M85.589,162.981v-14.803h14.12v1.295v-1.295h1.295v14.803H85.589z M88.173,160.391h10.241v-9.615
						l-10.241-0.014V160.391z"/>
					<path fill="#8A0021" d="M98.419,187.432v-14.803h14.12v1.295v-1.295h1.295v14.803H98.419z M100.989,184.834h10.255v-9.622
						l-10.255-0.007V184.834z"/>
					<path fill="#8A0021" d="M98.418,126.344v-14.789h15.415v13.494v1.295H98.418z M112.538,125.049v-1.295V125.049z
						 M100.987,123.754h10.256v-9.622h-10.256V123.754z"/>
					<path fill="#8A0021" d="M85.586,175.216v-14.825h14.12v1.295v-1.295h1.281v14.825H85.586z M88.17,172.633h10.234v-9.651H88.17
						V172.633z"/>
					<path fill="#8A0021" d="M85.585,187.435V173.92v-1.288h15.401v14.803H85.585z M88.175,184.837h10.241v-9.622H88.175V184.837z
						 M86.88,175.215v-1.295V175.215z"/>
					<path fill="#8A0021" d="M85.586,126.344v-14.789h14.12v1.295v-1.295h1.281v14.789H85.586z M88.17,123.754h10.241v-9.622H88.17
						V123.754z"/>
					<path fill="#8A0021" d="M85.586,138.557v-14.803h14.12v1.295v-1.295h1.295v14.803H85.586z M88.17,135.966h10.234v-9.629H88.17
						V135.966z"/>
					<path fill="#8A0021" d="M85.586,150.776v-14.81h14.12v1.302v-1.302h1.281v14.81H85.586z M88.17,148.179h10.234v-9.622H88.17
						V148.179z"/>
					<path fill="#8A0021" d="M98.4,175.217v-13.529v-1.295h15.429v14.825H98.4z M100.991,172.626h10.255v-9.651h-10.255V172.626z
						 M99.71,162.976v-1.288V162.976z"/>
					<path fill="#8A0021" d="M90.801,101.903h-2.783l1.779-2.128c2.783-3.288,5.836-6.334,9.067-9.117l2.121-1.858v13.102H90.801z
						 M98.417,99.32v-4.797c-1.651,1.53-3.252,3.131-4.768,4.797H98.417z"/>
					<path fill="#8A0021" d="M111.25,101.905V87.108h14.134v1.31v-1.31h1.295v14.796H111.25z M113.833,99.314h10.256v-9.608h-10.256
						V99.314z"/>
					<path fill="#8A0021" d="M98.862,211.331c-4.227-3.658-8.021-7.743-11.416-12.191l-1.566-2.085h15.123v16.148L98.862,211.331z
						 M98.407,207.452v-7.807h-7.259C93.396,202.406,95.816,205.011,98.407,207.452 M88.479,199.645v-1.288V199.645z"/>
					<path fill="#8A0021" d="M125.384,224.081h-1.295v-14.81h15.415v14.81H125.384z M126.679,221.49h10.234v-9.636h-10.234V221.49z"
						/>
					<path fill="#8A0021" d="M111.916,220.554c-4.591-2.598-8.868-5.594-12.832-9.003l-2.683-2.277h17.429v10.156v2.213
						L111.916,220.554z M112.556,219.429l0.619-1.132L112.556,219.429z M111.247,217.159v-5.288h-7.701
						C106.009,213.778,108.578,215.543,111.247,217.159"/>
					<path fill="#8A0021" d="M112.538,199.648h-1.288v-14.817h15.429v14.817H112.538z M124.089,187.436h-10.256v9.622h10.256
						V187.436z"/>
					<path fill="#8A0021" d="M98.419,162.981v-14.803h14.134v1.295v-1.295h1.281v14.803H98.419z M100.989,160.391h10.255v-9.615
						l-10.255-0.014V160.391z"/>
					<path fill="#8A0021" d="M99.375,211.872l-0.377-0.391l0.028-0.021l-0.626-0.37v-12.746v-1.288h15.429v14.817H99.375z
						 M101.005,209.281l10.241-0.007v-9.629h-10.241V209.281z M99.71,199.645v-1.302V199.645z"/>
					<path fill="#8A0021" d="M112.538,162.982h-1.288v-14.803h15.429v14.803H112.538z M124.089,150.762h-10.256v9.629h10.256
						V150.762z"/>
					<path fill="#8A0021" d="M112.538,175.216h-1.288v-14.825h15.429v14.825H112.538z M124.089,162.975h-10.256v9.651h10.256
						V162.975z"/>
					<path fill="#8A0021" d="M98.404,150.776v-14.81h14.148v1.302v-1.302h1.281v14.81H98.404z M100.987,148.179h10.256v-9.622
						h-10.256V148.179z"/>
					<path fill="#8A0021" d="M112.551,187.432h-1.302v-14.803h15.429v14.803H112.551z M113.833,184.841l10.255-0.007v-9.629h-10.255
						V184.841z"/>
					<path fill="#8A0021" d="M98.418,138.557v-14.803h14.12v1.295v-1.295h1.295v14.803H98.418z M101.001,135.966h10.241v-9.629
						h-10.241V135.966z"/>
					<path fill="#8A0021" d="M119.002,224.079l-0.249-0.107c-2.334-1.039-4.612-2.178-6.84-3.423l-0.669-0.37v-10.91h14.141v1.309
						v-1.309h1.288v14.81H119.002z M124.091,221.489v-9.622l-10.256-0.014v6.811c1.872,1.018,3.779,1.964,5.708,2.825H124.091z"/>
					<path fill="#8A0021" d="M80.038,187.432l-0.356-0.719c-1.964-3.95-3.701-8.078-5.032-12.426l-0.52-1.658h12.746v1.295v-1.295
						h1.295v14.803H80.038z M81.653,184.841l3.936-0.007v-9.622h-7.928C78.778,178.535,80.123,181.731,81.653,184.841"/>
					<path fill="#8A0021" d="M72.157,162.981l-0.149-1.139c-0.463-3.487-0.818-7.11-0.818-10.868
						c0.014-0.655,0.093-1.153,0.093-1.502v-1.295h15.6v1.295v-1.295h1.288v14.803H72.157z M85.587,160.391v-9.615h-11.8v0.199
						c0,3.203,0.263,6.327,0.655,9.416H85.587z"/>
					<path fill="#8A0021" d="M74.925,175.213l-0.278-0.932c-1.224-4-2.057-8.163-2.64-12.419l-0.199-1.473h15.074v1.302v-1.302
						h1.288v14.825H74.925z M85.587,172.63v-9.651H74.783c0.505,3.295,1.181,6.526,2.071,9.651H85.587z"/>
					<path fill="#8A0021" d="M71.256,150.777l0.028-1.317c0.071-4.22,0.47-8.369,1.196-12.419l0.192-1.075h14.205v1.302v-1.302
						h1.295v14.81H71.256z M73.911,148.179H85.59v-9.622H74.843C74.331,141.717,74.01,144.926,73.911,148.179"/>
					<path fill="#8A0021" d="M72.214,138.558l0.263-1.523c0.74-4.27,1.865-8.398,3.238-12.412l0.292-0.868h10.875v1.295v-1.295
						h1.288v14.803H72.214z M85.587,135.968v-9.629h-7.715c-1.039,3.146-1.921,6.341-2.555,9.629H85.587z"/>
					<path fill="#8A0021" d="M80.163,114.136l1.103-1.929c1.416-2.505,2.932-4.882,4.555-7.195l2.348-3.359v12.483H80.163z
						 M85.587,111.545v-1.502c-0.32,0.491-0.626,1.003-0.932,1.502H85.587z"/>
					<path fill="#8A0021" d="M85.589,114.136v-8.797l0.235-0.335c1.281-1.751,2.555-3.523,3.978-5.224l0.384-0.463h10.818v13.536
						v1.281H85.589z M99.709,112.855v-1.31V112.855z M88.173,111.545h10.234v-9.636h-6.996c-1.124,1.366-2.171,2.811-3.238,4.263
						V111.545z"/>
					<path fill="#8A0021" d="M75.103,126.34l0.612-1.722c1.516-4.32,3.352-8.483,5.551-12.412l0.356-0.655h5.259v1.302v-1.302h1.288
						v14.789H75.103z M85.587,123.756v-9.622h-2.434c-1.665,3.06-3.11,6.277-4.363,9.622H85.587z"/>
					<path fill="#8A0021" d="M85.822,196.978c-2.277-3.26-4.334-6.654-6.128-10.27l-0.947-1.872h9.423v15.508L85.822,196.978z
						 M85.587,191.924v-4.491h-2.612C83.793,188.971,84.669,190.458,85.587,191.924 M80.847,187.434v-1.302V187.434z"/>
					<path fill="#8A0021" d="M137.987,229.661c-4.484-0.74-8.839-1.836-13.024-3.281l-0.875-0.306v-0.918v-2.377v-1.288h15.415
						v8.419L137.987,229.661z M136.906,226.843v-2.761h-10.227v0.149C129.981,225.327,133.39,226.195,136.906,226.843
						 M125.383,224.082v-1.302V224.082z"/>
					<path fill="#8A0021" d="M151.032,230.814c-4.477,0-8.818-0.455-13.038-1.153l-1.089-0.178v-5.402v-12.213v-12.213v-12.22
						v-12.22v-12.234v-12.206v-12.213v-12.22v-12.206v-12.234V89.706V73.622v-1.103l1.089-0.178
						c4.22-0.712,8.562-1.167,13.038-1.167h1.288v159.64H151.032z M149.737,228.202v-4.121h-10.241v3.188
						C142.854,227.803,146.249,228.138,149.737,228.202 M149.737,211.868h-10.241v9.622h10.241V211.868z M149.737,199.656h-10.241
						v9.622h10.241V199.656z M149.737,187.436h-10.241v9.622h10.241V187.436z M149.737,175.216h-10.241v9.629h10.241V175.216z
						 M149.737,162.982h-10.241v9.643h10.241V162.982z M149.737,150.776h-10.241v9.615h10.241V150.776z M149.737,138.564h-10.241
						v9.622h10.241V138.564z M149.737,126.344h-10.241v9.629h10.241V126.344z M149.737,114.139h-10.241v9.622h10.241V114.139z
						 M149.737,101.905h-10.241v9.636h10.241V101.905z M149.737,89.706h-10.241v9.615h10.241V89.706z M149.737,87.116V73.778
						c-3.487,0.071-6.882,0.413-10.241,0.939v12.398H149.737z"/>
					<path fill="#8A0021" d="M87.841,199.65l-0.391-0.512c-0.527-0.683-1.082-1.388-1.63-2.156l-0.235-0.335v-11.814h15.401v13.529
						v1.288H87.841z M99.712,198.362v-1.31V198.362z M98.417,197.052v-9.622H88.175v8.384c0.306,0.42,0.605,0.818,0.94,1.238H98.417
						z"/>
					<path fill="#8A0021" d="M124.967,226.38c-2.114-0.719-4.185-1.502-6.227-2.413l0.541-2.477h7.394v5.473L124.967,226.38z
						 M119.281,224.082v-1.288V224.082z"/>
					<path fill="#8A0021" d="M125.384,150.776h-1.295v-14.81h15.415v14.81H125.384z M126.679,148.179h10.234v-9.622h-10.234V148.179
						z"/>
					<path fill="#8A0021" d="M125.384,175.216h-1.295v-14.825h15.415v14.825H125.384z M136.906,162.975h-10.234v9.651h10.234
						V162.975z"/>
					<path fill="#8A0021" d="M125.384,162.982h-1.295v-14.803h15.401v14.803H125.384z M136.906,150.762h-10.234v9.629h10.234
						V150.762z"/>
					<path fill="#8A0021" d="M111.244,211.872v-13.529v-1.288h15.429v14.817H111.244z M113.835,209.274h10.256v-9.629h-10.256
						V209.274z M112.54,199.645v-1.302V199.645z"/>
					<path fill="#8A0021" d="M125.398,211.868h-1.31v-14.817h15.415v14.817H125.398z M136.921,199.641h-10.241v9.636h10.241V199.641
						z"/>
					<path fill="#8A0021" d="M125.384,138.557h-1.295v-14.803h15.401v14.803H125.384z M136.906,126.344h-10.234v9.622h10.234
						V126.344z"/>
					<path fill="#8A0021" d="M125.381,187.432h-1.288v-14.803h15.415v14.803H125.381z M126.676,184.841l10.234-0.007v-9.629h-10.234
						V184.841z"/>
					<path fill="#8A0021" d="M125.384,199.648h-1.295v-14.817h15.415v14.817H125.384z M136.921,187.436h-10.241v9.622h10.241
						V187.436z"/>
					<path fill="#8A0021" d="M99.71,101.903h-1.31V91.057l0.449-0.391c1.331-1.189,2.697-2.256,4.128-3.302l0.349-0.249h10.504
						v14.789H99.71z M111.247,99.32v-9.615h-7.074c-1.11,0.826-2.156,1.637-3.181,2.519v7.096H111.247z"/>
					<path fill="#8A0021" d="M111.249,89.706v-7.864l0.655-0.377c4.142-2.356,8.533-4.284,13.06-5.843l1.715-0.584v13.38v1.288
						H111.249z M125.383,88.418v-1.31V88.418z M113.833,87.108h10.255v-8.426c-3.558,1.302-6.974,2.847-10.255,4.669V87.108z"/>
					<path fill="#8A0021" d="M124.092,89.706V75.935l0.861-0.299c4.199-1.48,8.533-2.583,13.052-3.295l1.488-0.249v16.319v1.295
						H124.092z M138.198,88.411v-1.302V88.411z M126.676,87.108h10.234V75.145c-3.523,0.641-6.925,1.516-10.234,2.626V87.108z"/>
					<path fill="#8A0021" d="M99.902,89.706l3.06-2.327c2.847-2.171,5.822-4.185,8.953-5.921l1.914-1.082v9.33H99.902z
						 M111.247,87.116v-2.277c-1.182,0.719-2.349,1.487-3.502,2.277H111.247z"/>
					<path fill="#8A0021" d="M125.384,101.905h-1.295V87.108h15.401v14.796H125.384z M126.679,99.321h10.234v-9.615h-10.234V99.321z
						"/>
					<path fill="#8A0021" d="M125.384,114.138h-1.295V99.321h15.401v14.817H125.384z M136.906,101.905h-10.234v9.643h10.234V101.905
						z"/>
					<path fill="#8A0021" d="M125.384,126.344h-1.295v-14.789h15.401v14.789H125.384z M136.906,114.138h-10.234v9.622h10.234
						V114.138z"/>
					<polygon fill="#8A0021" points="151.029,229.523 142.716,228.982 142.716,125.289 151.029,125.289 					"/>
					<polygon fill="#8A0021" points="138.338,228.384 129.997,226.654 129.997,143.123 138.338,143.123 					"/>
					<polygon fill="#8A0021" points="125.494,225.249 117.196,221.783 117.196,170.626 125.494,170.626 					"/>
					<polygon fill="#8A0021" points="112.665,219.446 104.366,214.151 104.366,186.21 112.665,186.21 					"/>
				</g>
			</g>
			<g>
				<path fill="#1D1D1B" d="M176.704,105.749c-4.591,1.43-4.925-2.092-2.448-2.455c2.448-0.335,9.131,2.099,9.829,0
					c0.712-2.099-1.359-3.139-3.167-4.548c-1.779-1.431-5.587-2.875-2.099-5.665c3.487-2.783,5.266-3.523,1.039-3.16
					c-4.199,0.377-7.757,2.797-7.046,7.395c0.74,4.576-0.32,5.309-2.434,5.978c-2.085,0.726-0.69,3.886,1.402,4.925
					c2.1,1.053,2.477,1.722,2.477,5.267c0,3.516,0,2.128,1.061,3.886c0,0,5.601,4.889,8.768-1.039
					C187.265,110.332,181.287,104.311,176.704,105.749 M178.454,114.93c-1.053-4.562,0.683-4.227,0.683-4.227
					c1.779-0.705,2.135,1.729,2.135,1.729S179.507,119.478,178.454,114.93"/>
				<path fill="#1D1D1B" d="M191.493,108.911c0,0-1.779-1.032-2.477,2.114c-0.69,3.167,3.16,1.409,3.16,1.409
					S193.941,108.911,191.493,108.911"/>
				<path fill="#1D1D1B" d="M194.982,114.582c4.242,1.381,4.576-6.697,4.576-6.697S190.783,113.151,194.982,114.582"/>
				<path fill="#1D1D1B" d="M205.532,110.336c0,0-4.904,2.149-1.737,3.523C206.948,115.247,207.966,110.336,205.532,110.336"/>
				<path fill="#1D1D1B" d="M211.565,111.023c0,0-2.861,3.21-0.392,3.907C213.65,115.614,214.362,111.023,211.565,111.023"/>
				<path fill="#1D1D1B" d="M203.405,103.295c-1.032,1.431,6.355,6.647,6.355,3.494c0-3.146-2.811-6.313-2.811-6.313
					S204.473,101.893,203.405,103.295"/>
				<path fill="#1D1D1B" d="M187.935,95.553c0,0-0.335,6.021,4.242,6.697C195.386,100.527,189.728,94.122,187.935,95.553"/>
				<path fill="#1D1D1B" d="M197.457,92.05c0,0-4.932,1.737-3.167,3.857c1.751,2.121,6.014,1.744,7.765,1.409
					C203.798,96.96,197.457,92.05,197.457,92.05"/>
				<path fill="#1D1D1B" d="M189.714,90.639c1.067-4.541-2.811-3.53-2.811-3.53s-1.765,0.377-2.818,2.484
					C183.052,91.7,188.632,95.215,189.714,90.639"/>
				<path fill="#1D1D1B" d="M186.531,106.791c4.59,2.121,1.067-3.829,1.067-3.829S181.94,104.684,186.531,106.791"/>
				<path fill="#1D1D1B" d="M196.761,102.961c0,0-5.267,0.698-1.402,2.434C199.223,107.182,196.761,102.961,196.761,102.961"/>
				<g>
					<path fill="#1D1D1B" d="M156.462,171.409v-28.432l2.128,0.349c0.157,0.036,5.658,0.932,11.33,4.968v-6.79l2.085,0.306
						c0.128,0.028,6.946,1.018,14.981,5.338v-5.138l1.907,0.085c0.292,0,5.836,0.356,12.746,5.943v-6.227l2.1,0.299
						c0.278,0.036,9.202,1.388,20.767,11.437l0.64,0.541v15.486v1.836H156.462z M223.326,169.573v-1.836V169.573z M160.12,167.737
						h61.369v-11.985c-7.245-6.113-13.188-8.562-16.177-9.494v10.305l-3.131-3.117c-4.875-4.875-9.174-6.64-11.537-7.309v7.473
						l-2.797-1.744c-4.249-2.648-8.377-4.27-11.437-5.217c-1.11-0.349-2.071-0.598-2.832-0.79v10.547l-3.103-2.932
						c-2.847-2.697-5.993-4.341-8.434-5.309c-0.712-0.285-1.367-0.505-1.921-0.683V167.737z"/>
					<path fill="#1D1D1B" d="M178.121,127.412c0,0-0.192-2.121,1.865-3.366c0.875-0.534,4.22-2.277,3.943,1.153v22.981l-5.807-2.441
						V127.412z"/>
					<path fill="#FFFFFF" d="M180.526,124.688c-1.082,0.698-1.708,1.651-1.388,2.142c0.306,0.512,1.43,0.377,2.526-0.306
						c1.096-0.712,1.708-1.687,1.402-2.192C182.753,123.848,181.636,123.976,180.526,124.688"/>
				</g>
				<rect x="161.801" y="153.83" fill="#1D1D1B" width="24.269" height="7.793"/>
				<rect x="192.952" y="153.83" fill="#1D1D1B" width="24.269" height="7.793"/>
			</g>
		</g>
	</g>
</g>
</svg>
